<?xml version="1.0" standalone="no"?><!DOCTYPE svg PUBLIC "-//W3C//DTD SVG 1.1//EN" "http://www.w3.org/Graphics/SVG/1.1/DTD/svg11.dtd"><svg class="icon" height="512" viewBox="0 0 1521 1024" version="1.1" xmlns="http://www.w3.org/2000/svg"><path d="M1174.012739 232.62845c19.566879 10.870488 43.481953 4.348195 54.352441-15.218684l56.52654-95.660297c10.870488-19.566879 4.348195-43.481953-15.218684-54.352441-19.566879-10.870488-43.481953-4.348195-54.352442 15.218683l-56.526539 95.660297c-10.870488 19.566879-4.348195 43.481953 15.218684 54.352442z m115.227176 113.053079c10.870488 19.566879 34.785563 26.089172 54.352442 15.218683l95.660297-56.526539c19.566879-10.870488 26.089172-34.785563 15.218684-54.352442-10.870488-19.566879-34.785563-26.089172-54.352442-15.218683L1304.458599 293.503185c-19.566879 10.870488-26.089172 34.785563-15.218684 52.178344z m193.494692 117.401274h-110.878981c-21.740977 0-39.133758 17.392781-39.133758 39.133758s17.392781 39.133758 39.133758 39.133757h110.878981c21.740977 0 39.133758-17.392781 39.133758-39.133757s-17.392781-39.133758-39.133758-39.133758z m-43.481953 236.976645l-95.660297-56.526539c-19.566879-10.870488-43.481953-4.348195-54.352442 15.218683-10.870488 19.566879-4.348195 43.481953 15.218684 54.352442l95.660297 56.526539c19.566879 10.870488 43.481953 4.348195 54.352442-15.218683 10.870488-19.566879 4.348195-43.481953-15.218684-54.352442zM806.590234 217.409766c10.870488 19.566879 34.785563 26.089172 54.352441 15.218684 19.566879-10.870488 26.089172-34.785563 15.218684-54.352442l-56.526539-95.660297c-10.870488-19.566879-34.785563-26.089172-54.352442-15.218683-19.566879 10.870488-26.089172 34.785563-15.218684 54.352441l56.52654 95.660297z m210.887473-28.263269c21.740977 0 39.133758-17.392781 39.133758-39.133758V39.133758c0-21.740977-17.392781-39.133758-39.133758-39.133758S978.343949 17.392781 978.343949 39.133758v110.878981c0 21.740977 17.392781 39.133758 39.133758 39.133758z m173.927813 517.435244c56.526539-50.004246 91.312102-121.749469 91.312102-202.191083C1282.717622 358.726115 1163.142251 239.150743 1017.477707 239.150743c-76.093418 0-145.664544 30.437367-195.66879 84.789809 17.392781 17.392781 34.785563 34.785563 50.004246 54.352442 36.95966-41.307856 89.138004-65.22293 145.664544-65.22293 106.530786 0 191.320594 84.789809 191.320594 191.320594 0 43.481953-13.044586 82.615711-39.133757 115.227176 10.870488 28.26327 19.566879 58.700637 21.740976 86.963907z m36.95966 82.615711c-8.696391-13.044586-21.740977-19.566879-36.95966-19.566879-2.174098 28.26327-8.696391 56.526539-17.392781 82.615712l41.307855 71.745222c10.870488 19.566879 34.785563 26.089172 54.352442 15.218684 19.566879-10.870488 26.089172-34.785563 15.218684-54.352442l-56.52654-95.660297zM856.59448 456.56051c-67.397028-115.227176-191.320594-184.798301-326.11465-184.798302-180.450106 0-332.636943 123.923567-369.596603 300.025478C67.397028 600.050955 0 687.014862 0 791.37155c0 128.271762 104.356688 232.62845 234.802548 232.62845 45.656051 0 91.312102-13.044586 128.271762-39.133758 52.178344 26.089172 108.704883 39.133758 167.40552 39.133758 60.874735 0 119.575372-15.218684 171.753716-41.307856 45.656051 28.26327 95.660297 41.307856 147.838641 41.307856 156.535032 0 284.806794-128.271762 284.806794-284.806794 2.174098-154.360934-123.923567-280.458599-278.284501-282.632696z m-4.348195 489.171974c-45.656051 0-89.138004-15.218684-126.097665-43.481953-17.392781-13.044586-41.307856-10.870488-54.352442 6.522293-43.481953 21.740977-91.312102 34.785563-139.14225 34.785562-52.178344 0-102.18259-13.044586-147.838641-39.133758-10.870488-6.522293-23.915074-6.522293-34.785563-2.174097-6.522293 0-13.044586 4.348195-17.392781 8.69639a154.360934 154.360934 0 0 1-95.660298 32.611465c-84.789809 0-154.360934-69.571125-154.360934-154.360934 0-84.789809 69.571125-154.360934 154.360934-154.360934 43.481953 0 84.789809 17.392781 113.053079 50.004246 15.218684 15.218684 39.133758 17.392781 56.526539 2.174098 15.218684-15.218684 17.392781-39.133758 2.174098-56.526539-41.307856-45.656051-100.008493-71.745223-160.883227-73.919321C282.632696 434.819533 397.859873 347.855626 530.47983 347.855626c95.660297 0 182.624204 45.656051 239.150743 119.575372-36.95966 10.870488-71.745223 30.437367-102.18259 56.526539-17.392781 13.044586-19.566879 39.133758-4.348195 56.526539s39.133758 19.566879 56.526539 4.348196c36.95966-32.611465 84.789809-50.004246 132.619958-50.004247 113.053079 0 206.539278 91.312102 206.539278 204.365181-2.174098 113.053079-93.4862 206.539278-206.539278 206.539278z" /></svg>